<svg width="15" height="13" viewBox="0 0 15 13" fill="none" xmlns="http://www.w3.org/2000/svg">
<path fill-rule="evenodd" clip-rule="evenodd" d="M0 6.5L2.88698 3.03562C4.02786 1.66657 5.7179 0.875 7.5 0.875C9.28211 0.875 10.9721 1.66657 12.113 3.03562L15 6.5L12.113 9.96438C10.9721 11.3334 9.28211 12.125 7.5 12.125C5.7179 12.125 4.02786 11.3334 2.88698 9.96438L0 6.5ZM7.5 9.3125C9.0533 9.3125 10.3125 8.0533 10.3125 6.5C10.3125 4.9467 9.0533 3.6875 7.5 3.6875C5.9467 3.6875 4.6875 4.9467 4.6875 6.5C4.6875 8.0533 5.9467 9.3125 7.5 9.3125Z" fill="#7B7B7B"/>
</svg>
